<svg xmlns="http://www.w3.org/2000/svg" width="128" height="20.263" viewBox="0 0 128 20.263">
  <g id="Logo" transform="translate(-211.807 -46.445)">
    <path id="Tracé_2" data-name="Tracé 2" d="M8.975-2.483H8.926V-2.5a1.7,1.7,0,0,1-1.077-.486,1.594,1.594,0,0,1-.462-1.077q-.062-1.33-.209-2.647H2.388q-.16,1.588-.209,3.053a1.091,1.091,0,0,1-.332.745,1.063,1.063,0,0,1-.776.3A1.051,1.051,0,0,1,.3-2.938,1.09,1.09,0,0,1,0-3.714v-.012a50.841,50.841,0,0,1,.5-5.8,19.335,19.335,0,0,1,1.736-6.131l.025-.037a4.651,4.651,0,0,1,1.256-1.551,2.823,2.823,0,0,1,1.736-.616A3.351,3.351,0,0,1,6-17.774q1.994.566,3.164,4.038A30.108,30.108,0,0,1,10.477-7.4q.259,2.4.259,3.349A1.469,1.469,0,0,1,10.3-2.963,1.823,1.823,0,0,1,8.975-2.483Zm-2.068-6.4a35.3,35.3,0,0,0-.917-4.426A4.494,4.494,0,0,0,4.949-15.5a2.837,2.837,0,0,0-.862,1,19.331,19.331,0,0,0-1.44,5.614Zm8.175,6.4a9.006,9.006,0,0,1-1.834-.2,1.382,1.382,0,0,1-.566-.148L12.435-2.9l.025-.062-.025-.012-.111-.086a1.624,1.624,0,0,1-.468-1.145q.037-3.287.049-7.3.012-2.844.025-4.2v-.049a3.465,3.465,0,0,1,.1-.806,1.6,1.6,0,0,1,.419-.745,1.4,1.4,0,0,1,1-.369,1.338,1.338,0,0,1,.665.172,3.989,3.989,0,0,1,2.019-.529,8.105,8.105,0,0,1,1.484.209,5.773,5.773,0,0,1,2.358,1.354,6.666,6.666,0,0,1,2.081,4.752q.012.3.012.591a11.513,11.513,0,0,1-.591,3.577,8.7,8.7,0,0,1-1.81,3.17A5.987,5.987,0,0,1,15.082-2.483Zm-.037-2.425A4.985,4.985,0,0,0,16.331-5.1a3.118,3.118,0,0,0,1.385-.88A6.662,6.662,0,0,0,19.021-8.4a8.6,8.6,0,0,0,.382-2.536q0-.222-.012-.456a4.187,4.187,0,0,0-1.17-2.967,3.97,3.97,0,0,0-1.49-.837,2.218,2.218,0,0,0-.653-.111,1.466,1.466,0,0,0-.64.135,1.184,1.184,0,0,0-.566.665q-.037,1.748-.062,4.371-.025,2.992-.074,5.22Q14.885-4.908,15.045-4.908ZM28.477-2.544a1.644,1.644,0,0,1-.566-.1,4.909,4.909,0,0,1-2.518-2.69,20.839,20.839,0,0,1-1.484-4.543,41.821,41.821,0,0,1-.7-4.3q-.185-1.724-.185-1.945v-.086A1.1,1.1,0,0,1,23-16.469q0-.111.025-.369a1.293,1.293,0,0,1,.32-.628,1.321,1.321,0,0,1,1.108-.456h.726q1.5.025,1.564,1.724a43.578,43.578,0,0,0,.733,6.205A9.434,9.434,0,0,0,28.8-6.1l.259-.246a39.182,39.182,0,0,0,1.453-4.2q.763-2.592,1.391-5.423a1.2,1.2,0,0,1,.529-.763,1.21,1.21,0,0,1,.665-.2,1.179,1.179,0,0,1,1.046.566,1.151,1.151,0,0,1,.2.653,1.723,1.723,0,0,1-.025.283q-.406,1.884-1.243,4.9a30.485,30.485,0,0,1-2.124,5.9,4.212,4.212,0,0,1-1.508,1.816A1.94,1.94,0,0,1,28.477-2.544Zm10.071.209q-1.022,0-1.6-.055t-.628-.068l-.394-.172A2.64,2.64,0,0,1,35.334-3a1.537,1.537,0,0,1-.48-1.145q.037-3.287.049-7.3.012-2.844.025-4.186a2.611,2.611,0,0,1,.2-1.12,1.062,1.062,0,0,1,.283-.369,3.263,3.263,0,0,1,.412-.308q.215-.135.376-.222l.16-.074a8.305,8.305,0,0,1,1.28-.148q.468-.037,1.12-.037.985,0,2.364.1a1.255,1.255,0,0,1,.874.456,1.159,1.159,0,0,1,.283.776l-.012.185a1.1,1.1,0,0,1-.406.763,1.023,1.023,0,0,1-.665.209,2.005,2.005,0,0,1-.222-.012,12.105,12.105,0,0,0-1.859-.16,3.2,3.2,0,0,0-1.145.172q-.049,1.354-.074,3.94h2.29a1.245,1.245,0,0,1,.9.357,1.169,1.169,0,0,1,.369.874,1.175,1.175,0,0,1-.369.868,1.234,1.234,0,0,1-.9.363H37.87q-.025,2.425-.062,4.211.332.012.763.012,1.268,0,2.758-.148l.135-.012a1.326,1.326,0,0,1,.8.271,1.16,1.16,0,0,1,.456.776,1.307,1.307,0,0,1,.012.185,1.231,1.231,0,0,1-.289.782,1.224,1.224,0,0,1-.831.437A28.428,28.428,0,0,1,38.547-2.335Zm14.171-.123q-.123,0-.246-.012a1.891,1.891,0,0,1-1.613-1.022l-4.284-7.929.012,7.535a1.191,1.191,0,0,1-.357.856,1.286,1.286,0,0,1-.874.363,1.22,1.22,0,0,1-.856-.357,1.2,1.2,0,0,1-.363-.862l-.012-12.3a1.691,1.691,0,0,1,.517-1.231,1.7,1.7,0,0,1,1.231-.5h.271a1.8,1.8,0,0,1,1.588,1.046l4.075,7.522.037-7.215a1.187,1.187,0,0,1,.363-.849,1.234,1.234,0,0,1,.868-.357,1.213,1.213,0,0,1,.862.357,1.213,1.213,0,0,1,.357.862L54.22-4.009l-.025.16a1.459,1.459,0,0,1-.7,1.194A1.674,1.674,0,0,1,52.718-2.458Zm7.362,0h-.062q-1,0-1.305-1.342a34.09,34.09,0,0,1-.246-5.122q0-3.977.209-6.5h-1.97a1.219,1.219,0,0,1-.886-.363,1.189,1.189,0,0,1-.369-.88,1.2,1.2,0,0,1,.369-.893,1.219,1.219,0,0,1,.886-.363h7.658a1.2,1.2,0,0,1,.88.363,1.213,1.213,0,0,1,.363.893,1.2,1.2,0,0,1-.363.88,1.2,1.2,0,0,1-.88.363H61.681q-.049,1.12-.086,2.979-.1,3.693-.1,3.977-.123,4.531-.16,4.826A1.252,1.252,0,0,1,60.08-2.458Zm10.083.025H70a4.145,4.145,0,0,1-2.93-1.4A6.131,6.131,0,0,1,65.682-6.3a9,9,0,0,1-.431-3.016q0-5.454,3.09-7.682a3.54,3.54,0,0,1,1.994-.653,3.636,3.636,0,0,1,1.551.369,6.325,6.325,0,0,1,2.906,4.075,12.947,12.947,0,0,1,.443,3.324,12.345,12.345,0,0,1-.222,2.327Q73.931-2.791,70.163-2.433ZM70.114-4.8A2.451,2.451,0,0,0,72-6.035a6.122,6.122,0,0,0,.763-1.988,11.413,11.413,0,0,0,.172-1.945,11.4,11.4,0,0,0-.431-2.881,3.6,3.6,0,0,0-1.65-2.327l-.16-.049-.012-.012a.766.766,0,0,0-.32.074,3.465,3.465,0,0,0-1.268,1.871,10.518,10.518,0,0,0-.628,3.718,9.7,9.7,0,0,0,.382,2.942Q69.339-5.105,70.114-4.8ZM81.933-2.544a5.61,5.61,0,0,1-2.3-.492,4.948,4.948,0,0,1-2.536-2.992,14.246,14.246,0,0,1-.653-3.9l-.012-1.1a49.061,49.061,0,0,1,.332-5.516,1.379,1.379,0,0,1,.259-.751,1.557,1.557,0,0,1,1.268-.591h.6a1.484,1.484,0,0,1,1.1.431,1.375,1.375,0,0,1,.382,1v.135q-.172,2.265-.172,4.383,0,.948.025,1.871a12.47,12.47,0,0,0,.591,3.484,2.685,2.685,0,0,0,.813,1.354,2.151,2.151,0,0,0,.973.172,3.524,3.524,0,0,0,.751-.283A3.235,3.235,0,0,0,84.6-7.481a22.043,22.043,0,0,0,.419-4.309q0-.628-.037-1.256-.012-1.637-.037-2.524a1.205,1.205,0,0,1,.345-.88,1.23,1.23,0,0,1,.886-.363,1.26,1.26,0,0,1,.868.345,1.189,1.189,0,0,1,.376.837q0,.468.012.923.074,2.45.074,2.918A25,25,0,0,1,87.018-6.9,6.988,6.988,0,0,1,85.8-4.243,4.944,4.944,0,0,1,82.918-2.63,7.256,7.256,0,0,1,81.933-2.544Zm8.84.086a1.445,1.445,0,0,1-1.01-.369,1.792,1.792,0,0,1-.5-1.305q.025-2.167.025-4.641l-.012-2.548q0-2.795.012-4.137a2.6,2.6,0,0,1,.468-1.644,1.407,1.407,0,0,1,.8-.5,2.352,2.352,0,0,1,.332-.025,5.17,5.17,0,0,1,1.994-.382,4.7,4.7,0,0,1,.628.037,4.521,4.521,0,0,1,3.016,1.921,5.152,5.152,0,0,1,.9,3.016,6.817,6.817,0,0,1-.037.7A5.455,5.455,0,0,1,95.3-8.577q-.234.172-.48.32a8.26,8.26,0,0,1,2.721,4.149,1.585,1.585,0,0,1,.037.332,1.4,1.4,0,0,1-.332.868,1.16,1.16,0,0,1-.973.425,1.468,1.468,0,0,1-.9-.265,1.282,1.282,0,0,1-.48-.708,5.146,5.146,0,0,0-1.12-2,7.373,7.373,0,0,0-1.551-1.336q-.049,2.709-.1,3.09a1.327,1.327,0,0,1-.886,1.157l-.172.074Zm1.5-7.387a3.264,3.264,0,0,0,1.551-.653A3.025,3.025,0,0,0,95.008-13a3.435,3.435,0,0,0-.406-1.588,1.949,1.949,0,0,0-1.453-1q-.16-.012-.308-.012a3.235,3.235,0,0,0-.48.037q-.025.64-.086,5.4Z" transform="translate(242.226 67.438)" fill="#fff"/>
    <path id="Map" d="M109.656,114.307c.075-.052.153-.1.23-.147.15-.089.3-.176.458-.256.363-.193.737-.369,1.109-.544a14.266,14.266,0,0,0,2.013-1.057c.141-.1.268-.219.415-.308a.293.293,0,0,0,.046-.032s0,.006.009.009a2.049,2.049,0,0,1,.386.2c.5.271,1.011.539,1.515.809q1.577.842,3.156,1.687a.726.726,0,0,0,.726,0c1.788-1.126,3.306-2.615,5.03-3.824a28.3,28.3,0,0,0,2.05,2.019,9,9,0,0,0,3.084,1.742.724.724,0,0,0,.91-.694c-.1-5.128.274-10.228.535-15.348a.726.726,0,0,0-.53-.694,1.912,1.912,0,0,1-.256-.081l-.009,0-.014-.006c-.052-.026-.106-.049-.158-.075-.242-.121-.478-.259-.708-.4-.553-.34-1.091-.708-1.63-1.074-.515-.348-1.031-.7-1.566-1.019a3.331,3.331,0,0,0-1.4-.559,1.28,1.28,0,0,0-.993.464c-.343.323-.674.659-1.008.991-.443.438-.89.875-1.351,1.3-.2.187-.412.371-.628.547l-.106.086c-.009.006-.014.011-.02.014-.081.058-.164.109-.248.164,0,.009-.035.035-.069.04a.27.27,0,0,0-.049.026c.014-.011.026-.017.037-.026h-.006a2.157,2.157,0,0,1-.57-.092,4.636,4.636,0,0,1-1.241-.9q-1.417-1.274-2.828-2.545a.728.728,0,0,0-.873-.112c-2.016,1.5-4.394,2.45-6.41,3.953a.744.744,0,0,0-.259.985.657.657,0,0,0,.187.2c0,4.705-.291,9.4-.285,14.109a.73.73,0,0,0,1.229.51c-.1.081.064-.04.087-.058ZM112.832,111a.048.048,0,0,1-.014.011c-.035.026-.072.052-.106.075-.063.043-.13.086-.2.127-.176.106-.354.2-.535.3-.4.207-.8.4-1.207.59-.328.155-.657.308-.979.475.04-4.3.282-8.6.276-12.906a.7.7,0,0,0-.055-.276c1.348-.913,2.813-1.638,4.21-2.476a104.063,104.063,0,0,1-.34,13.632,1.844,1.844,0,0,0-1.054.449Zm8.944-11.771a15.885,15.885,0,0,0,1.353-1.175c.455-.429.9-.873,1.342-1.31-.251,3.7-.452,7.4-.878,11.095a.726.726,0,0,0,.72.72.735.735,0,0,0,.72-.72c.432-3.749.631-7.507.89-11.267.351.213.694.443,1.037.674.613.412,1.218.835,1.846,1.227a8.688,8.688,0,0,0,1.065.6c-.242,4.593-.547,9.168-.518,13.77a16.346,16.346,0,0,1-3.991-3.438.728.728,0,0,0-.873-.112c-1.419.927-2.672,2.07-4.014,3.1.279-4.3.61-8.6.887-12.9a2.267,2.267,0,0,0,.415-.256Zm-4.187-1.135a5.7,5.7,0,0,0,2.326,1.523c-.291,4.466-.636,8.926-.922,13.393a.142.142,0,0,1,0,.035l-2.684-1.434c-.351-.187-.7-.389-1.057-.576a1.066,1.066,0,0,0,.049-.216,104.271,104.271,0,0,0,.34-14.475q.976.872,1.946,1.75Z" transform="translate(103.469 -48.059)" fill="#fff"/>
  </g>
</svg>
