<svg xmlns="http://www.w3.org/2000/svg" width="55" height="55" viewBox="0 0 55 55">
  <path id="Bouton_calendrier" data-name="Bouton calendrier" d="M27.5,55A27.507,27.507,0,0,1,16.8,2.161,27.507,27.507,0,0,1,38.2,52.839,27.329,27.329,0,0,1,27.5,55ZM17.339,18.931a1.734,1.734,0,0,0-1.768,1.737v16.9A1.755,1.755,0,0,0,17.339,39.3H37.518a1.734,1.734,0,0,0,1.768-1.737v-16.9a1.768,1.768,0,0,0-1.793-1.737H35.4v1.563a2.955,2.955,0,0,1-5.91,0V18.931H25.345v1.563a2.958,2.958,0,0,1-5.038,2.047,2.855,2.855,0,0,1-.872-2.047V18.931Zm15.1-3.176a1.6,1.6,0,0,0-1.616,1.588v3.151a1.616,1.616,0,0,0,3.233.025V17.343A1.6,1.6,0,0,0,32.442,15.755Zm-10.051,0a1.6,1.6,0,0,0-1.617,1.588v3.151a1.616,1.616,0,0,0,3.233.025V17.343A1.6,1.6,0,0,0,22.391,15.755ZM33.832,34.687H31.685a.66.66,0,0,1-.657-.645V32.379a.66.66,0,0,1,.657-.645h2.147a.644.644,0,0,1,.656.645v1.662A.659.659,0,0,1,33.832,34.687Zm-5.329,0H26.331a.66.66,0,0,1-.657-.645V32.379a.644.644,0,0,1,.657-.645H28.5a.644.644,0,0,1,.657.645v1.662A.66.66,0,0,1,28.5,34.687Zm-5.354,0H20.977a.66.66,0,0,1-.657-.645V32.379a.66.66,0,0,1,.657-.645h2.172a.644.644,0,0,1,.657.645v1.662A.66.66,0,0,1,23.148,34.687ZM33.832,29.9H31.685a.644.644,0,0,1-.657-.645V27.591a.66.66,0,0,1,.657-.645h2.147a.659.659,0,0,1,.656.645v1.662A.659.659,0,0,1,33.832,29.9Zm-5.329,0H26.331a.644.644,0,0,1-.657-.645V27.591a.644.644,0,0,1,.657-.645H28.5a.66.66,0,0,1,.657.645v1.662A.66.66,0,0,1,28.5,29.9Zm-5.354,0H20.977a.644.644,0,0,1-.657-.645V27.591a.66.66,0,0,1,.657-.645h2.172a.66.66,0,0,1,.657.645v1.662A.66.66,0,0,1,23.148,29.9Z" fill="#fff"/>
</svg>
