<svg xmlns="http://www.w3.org/2000/svg" width="55" height="55" viewBox="0 0 55 55">
  <path id="Bouton_Map" data-name="Bouton Map" d="M27.5,55A27.507,27.507,0,0,1,16.8,2.161,27.507,27.507,0,0,1,38.2,52.839,27.328,27.328,0,0,1,27.5,55ZM13.873,18.08h0a.43.43,0,0,0-.251.365V36.581a.5.5,0,0,0,.43.438l8.15,1.922V19.847l-7.776-1.834a.793.793,0,0,0-.186-.022.765.765,0,0,0-.365.09Zm16.908-1-7.354,2.476V38.886L30.781,36.4Zm1.226-.056V36.115l7.782,1.839a.809.809,0,0,0,.184.019.775.775,0,0,0,.368-.087.438.438,0,0,0,.246-.369V19.383a.494.494,0,0,0-.423-.434Z" fill="#fff"/>
</svg>
