<svg xmlns="http://www.w3.org/2000/svg" width="55" height="55" viewBox="0 0 55 55">
  <path id="Bouton_Réseaux_Sociaux" data-name="Bouton Réseaux Sociaux" d="M27.5,55A27.5,27.5,0,0,1,8.055,8.055,27.5,27.5,0,0,1,46.946,46.946,27.319,27.319,0,0,1,27.5,55ZM18.466,16.228a3.581,3.581,0,0,0-3.577,3.577V33.044a3.582,3.582,0,0,0,3.577,3.578H23.7l3.805,6.52,3.8-6.52h5.231a3.582,3.582,0,0,0,3.577-3.578V19.805a3.581,3.581,0,0,0-3.577-3.577ZM27.5,32.639h0L21.783,26.9a4.06,4.06,0,0,1,.2-5.5A4.048,4.048,0,0,1,27.5,21.2a4.045,4.045,0,0,1,5.716,5.7L27.5,32.638Z" fill="#fff"/>
</svg>
