<svg xmlns="http://www.w3.org/2000/svg" width="55" height="55" viewBox="0 0 55 55">
  <path id="Bouton_contact_mail" data-name="Bouton contact mail" d="M27.5,55A27.507,27.507,0,0,1,16.8,2.161,27.507,27.507,0,0,1,38.2,52.839,27.327,27.327,0,0,1,27.5,55ZM14.589,21.893h0c-.084,1-.084,2.219-.084,3.635v3.943a34.456,34.456,0,0,0,.148,4.23A4.664,4.664,0,0,0,15.9,36.566a4.668,4.668,0,0,0,2.865,1.245,34.711,34.711,0,0,0,4.231.148h9.014a34.685,34.685,0,0,0,4.23-.148,4.261,4.261,0,0,0,4.11-4.11,34.686,34.686,0,0,0,.148-4.23V25.528c0-1.416,0-2.639-.084-3.635l-4.448,2.754c-1.9,1.177-3.4,2.107-4.695,2.732a8.446,8.446,0,0,1-3.769,1,8.446,8.446,0,0,1-3.769-1c-1.291-.626-2.793-1.555-4.695-2.732l-4.448-2.754Zm8.4-4.853a34.7,34.7,0,0,0-4.231.148A4.668,4.668,0,0,0,15.9,18.433a3.921,3.921,0,0,0-.919,1.465L19.992,23c1.877,1.163,3.359,2.081,4.568,2.666a6.578,6.578,0,0,0,2.939.81,6.579,6.579,0,0,0,2.94-.81c1.2-.582,2.613-1.456,4.568-2.666l5.014-3.1a3.922,3.922,0,0,0-.919-1.465,4.664,4.664,0,0,0-2.865-1.245,34.686,34.686,0,0,0-4.23-.148Z" fill="#fff"/>
</svg>
